<?xml version="1.0" encoding="UTF-8" standalone="no"?>
<svg
   xmlns:dc="http://purl.org/dc/elements/1.1/"
   xmlns:cc="http://creativecommons.org/ns#"
   xmlns:rdf="http://www.w3.org/1999/02/22-rdf-syntax-ns#"
   xmlns:svg="http://www.w3.org/2000/svg"
   xmlns="http://www.w3.org/2000/svg"
   xmlns:sodipodi="http://sodipodi.sourceforge.net/DTD/sodipodi-0.dtd"
   xmlns:inkscape="http://www.inkscape.org/namespaces/inkscape"
   version="1.1"
   viewBox="0 0 301.817 301.817"
   enable-background="new 0 0 301.817 301.817"
   id="svg114"
   sodipodi:docname="color_favicon.svg"
   inkscape:version="1.0.1 (3bc2e813f5, 2020-09-07)">
  <metadata
     id="metadata120">
    <rdf:RDF>
      <cc:Work
         rdf:about="">
        <dc:format>image/svg+xml</dc:format>
        <dc:type
           rdf:resource="http://purl.org/dc/dcmitype/StillImage" />
        <dc:title></dc:title>
      </cc:Work>
    </rdf:RDF>
  </metadata>
  <defs
     id="defs118" />
  <sodipodi:namedview
     pagecolor="#ffffff"
     bordercolor="#666666"
     borderopacity="1"
     objecttolerance="10"
     gridtolerance="10"
     guidetolerance="10"
     inkscape:pageopacity="0"
     inkscape:pageshadow="2"
     inkscape:window-width="1920"
     inkscape:window-height="1016"
     id="namedview116"
     showgrid="false"
     inkscape:zoom="2.4451904"
     inkscape:cx="150.90849"
     inkscape:cy="150.90849"
     inkscape:window-x="0"
     inkscape:window-y="0"
     inkscape:window-maximized="1"
     inkscape:current-layer="svg114" />
  <g
     id="g112"
     style="fill:#008080">
    <path
       d="m301.597,201.096l-2.479-10.385c-4.272-17.894-16.882-33.748-34.023-37.599-11.617-2.61-18.829-0.907-27.781-5.033h-0.005c-3.324-1.533-0.28,0.531-51.546-39.01-4.18-3.224-9.296-4.774-14.006-4.774h-14.892c0.506-1.196 0.786-2.512 0.786-3.892 0-5.522-4.478-10-10-10h-0.001v-10.885c0-8.395-6.805-15.2-15.2-15.2s-15.2,6.805-15.2,15.2v10.885c-5.522,0-10,4.478-10,10 0,1.381 0.28,2.696 0.786,3.892h-15.648c-5.19,0-10.658,1.869-14.911,5.51l-35.704,30.557c-4.155,3.556-9.443,5.51-14.912,5.51h-16.463c-2.411,0-4.626,0.829-6.39,2.207-2.58,2.016-4.008,5.069-4.008,8.186v34.73c0,4.853 3.36,9.059 8.09,10.134l20.23,7.319c2.886-16.397 17.224-28.898 34.436-28.898 18.364,0 33.456,14.229 34.858,32.239 3.706,0.004 79.836-0.044 100.553-0.114 1.456-17.956 16.524-32.125 34.849-32.125 18.222,0 33.225,14.009 34.826,31.821 14.79-0.079 11.318-0.158 25.888-0.247 5.265-0.032 9.061-4.979 7.867-10.028zm-215.302-82.934l-11.022,29.917h-24.062c36.592-31.317 34.155-29.293 35.084-29.917zm1.766,29.917l11.71-31.784h36.679v31.784h-48.389zm60.388,0v-31.784h23.307c2.403,0 4.774,0.808 6.677,2.276l38.257,29.508h-68.241z"
       id="path106"
       style="fill:#008080" />
    <circle
       cx="62.755"
       cy="214.525"
       r="22.975"
       id="circle108"
       style="fill:#008080" />
    <circle
       cx="233.015"
       cy="214.525"
       r="22.975"
       id="circle110"
       style="fill:#008080" />
  </g>
</svg>
